<svg xmlns="http://www.w3.org/2000/svg" viewBox="0 0 612 612"><path fill="#FFFFFF" d="M572 523.5l-82.6-352.6c12.6-7.8 21-21.8 21-37.7 0-24.5-19.9-44.4-44.4-44.4-16.1 0-30.2 8.6-38 21.4L88.4 39C85.7 17 67 0 44.4 0 19.9 0 0 19.9 0 44.4c0 23 17.5 42 40 44.2l82.6 352.9c-12.3 7.9-20.5 21.7-20.5 37.4 0 24.5 19.9 44.4 44.4 44.4 16.1 0 30.1-8.5 37.9-21.3l339.2 71c2.7 22 21.4 39 44 39 24.5 0 44.4-19.9 44.4-44.4 0-23-17.5-41.9-40-44.1zM255 170.3c-8.7 0-16.8 2.5-23.6 6.8L99.6 70.6 416.3 137 289 186.2c-8.2-9.7-20.4-15.9-34-15.9zM68 81.9l145.3 117.5c-1.7 4.8-2.7 9.9-2.7 15.3 0 13.3 5.9 25.3 15.2 33.4L150 432.6 67.9 82s.1 0 .1-.1zm187 148.5c-8.7 0-15.7-7-15.7-15.7s7-15.7 15.7-15.7 15.7 7 15.7 15.7-7.1 15.7-15.7 15.7zm44.3-17.5l132.8-51.3c1.5 1.7 3.1 3.4 4.8 4.9L360.3 353c-.9-.1-1.8-.1-2.7-.1-2.8 0-5.5.3-8.1.7L288 244.2c7-7.9 11.3-18.2 11.3-29.6.1-.5 0-1.1 0-1.7zm58.3 168.7c8.7 0 15.7 7 15.7 15.7s-7 15.7-15.7 15.7-15.7-7-15.7-15.7 7.1-15.7 15.7-15.7zm0 60.1c8.7 0 16.7-2.5 23.6-6.8l131.4 106.6-316.5-66.3 127.6-49.3c8.1 9.6 20.3 15.8 33.9 15.8zm41.7-29.1c1.8-4.8 2.7-9.9 2.7-15.3 0-13.3-5.9-25.3-15.2-33.4l75.4-183.6L544.1 530 399.3 412.6zm66.8-295.2c8.7 0 15.7 7 15.7 15.7s-7 15.7-15.7 15.7-15.7-7-15.7-15.7 7-15.7 15.7-15.7zm-437.4-73c0-8.7 7-15.7 15.7-15.7s15.7 7 15.7 15.7-7 15.7-15.7 15.7S28.7 53 28.7 44.4zm117.8 450.2c-8.7 0-15.7-7-15.7-15.7s7-15.7 15.7-15.7 15.7 7 15.7 15.7-7 15.7-15.7 15.7zm29.2-49.1L252.3 259c.9.1 1.8.1 2.7.1 2.8 0 5.5-.3 8.1-.7l61.5 109.4c-7 7.9-11.3 18.2-11.3 29.6v1.8l-132.8 51.3c-1.5-1.9-3.1-3.5-4.8-5zm391.9 137.8c-8.7 0-15.7-7-15.7-15.7s7-15.7 15.7-15.7 15.7 7 15.7 15.7-7 15.7-15.7 15.7z"/></svg>
